{"title":"The Wolverine (2013) Ext.Cut 1080p BDRip[Hindi-Eng]DD5.1-DGrea8","uid":9223002,"size":4449742297,"categoryP":"video","categoryS":"hd___movies","magnet":"?xt=urn:btih:f47874f32a526b4d5ebedf9345ae1d9a495d768b&amp;dn=The+Wolverine+%282013%29+Ext.Cut+1080p+BDRip%5BHindi-Eng%5DDD5.1-DGrea8&amp;tr=udp%3A%2F%2Ftracker.openbittorrent.com%3A80&amp;tr=udp%3A%2F%2Fopen.demonii.com%3A1337&amp;tr=udp%3A%2F%2Ftracker.coppersurfer.tk%3A6969&amp;tr=udp%3A%2F%2Fexodus.desync.com%3A6969","seeders":1,"leechers":0,"uploader":"DGrea8","files":-1,"time":1384966585,"description":"The Wolverine (2013) Extended Edition 1080p BDRip[Hindi(448Kbps)-Eng(448Kbps)]DD5.1-DGrea8\n\n\nStoryline:-\n\n\nIn modern day Japan, Wolverine is out of his depth in an unknown world as he faces his ultimate nemesis in a life-or-death battle that will leave him forever changed. Vulnerable for the first time and pushed to his physical and emotional limits, he confronts not only lethal samurai steel but also his inner struggle against his own immortality, emerging more powerful than we have ever seen him before.\n\n\n\nCast Info:. \n\n\nHugh Jackman\t ...\tLogan\nTao Okamoto\t ...\tMariko\nRila Fukushima\t ...\tYukio\nHiroyuki Sanada\t ...\tShingen\nSvetlana Khodchenkova\t ...\tViper\nBrian Tee\t ...\tNoburo\nHal Yamanouchi\t ...\tYashida (as Haruhiko Yamanouchi)\nWill Yun Lee\t ...\tHarada\nKen Yamamura\t ...\tYoung Yashida\nFamke Janssen\t ...\tJean Grey\nNobutaka Aoyagi\t ...\tSecurity\nSeiji Funamoto\t ...\tServant\nShinji Ikefuji\t ...\tPock-Face\nQyoko Kudo\t ...\tAya\nNobuaki Kakuda\t ...\tBuddhist Priest\n\n\nGeneral Info:. \n\n\nDirector: James Mangold\nWriters:Mark Bomback (screenplay), Scott Frank (screenplay)\nStars:Hugh Jackman, Will Yun Lee, Tao Okamoto\nRelease Date:26 July 2013 (USA)\nGenres: Action | Adventure | Fantasy\n\n\nVideo Info:. \n\nVideo\nID : 1\nFormat : AVC\nFormat/Info : Advanced Video Codec\nFormat profile : &lt;a class=&quot;__cf_email__&quot; href=&quot;/cdn-cgi/l/email-protection&quot; data-cfemail=&quot;87cfeee0efc7cbb3a9b6&quot;&gt;[email&amp;#160;protected]&lt;/a&gt;&lt;script cf-hash='f9e31' type=&quot;text/javascript&quot;&gt;\n/* &lt;![CDATA[ */!function(){try{var t=&quot;currentScript&quot;in document?document.currentScript:function(){for(var t=document.getElementsByTagName(&quot;script&quot;),e=t.length;e--;)if(t[e].getAttribute(&quot;cf-hash&quot;))return t[e]}();if(t&amp;&amp;t.previousSibling){var e,r,n,i,c=t.previousSibling,a=c.getAttribute(&quot;data-cfemail&quot;);if(a){for(e=&quot;&quot;,r=parseInt(a.substr(0,2),16),n=2;a.length-n;n+=2)i=parseInt(a.substr(n,2),16)^r,e+=String.fromCharCode(i);e=document.createTextNode(e),c.parentNode.replaceChild(e,c)}}}catch(u){}}();/* ]]&gt; */&lt;/script&gt;\nFormat settings, CABAC : Yes\nFormat settings, ReFrames : 5 frames\nMuxing mode : Header stripping\nCodec ID : V_MPEG4/ISO/AVC\nDuration : 2h 18mn\nBit rate : 3 350 Kbps\nWidth : 1 920 pixels\nHeight : 800 pixels\nDisplay aspect ratio : 2.40:1\nFrame rate mode : Constant\nFrame rate : 23.976 fps\nColor space : YUV\nChroma subsampling : 4:2:0\nBit depth : 8 bits\nScan type : Progressive\nBits/(Pixel*Frame) : 0.091\nStream size : 3.15 GiB (77%)\n\nAudio Info:. \n\nAudio #1\nID : 2\nFormat : AC-3\nFormat/Info : Audio Coding 3\nMode extension : CM (complete main)\nFormat settings, Endianness : Big\nMuxing mode : Header stripping\nCodec ID : A_AC3\nDuration : 2h 18mn\nBit rate mode : Constant\nBit rate : 448 Kbps\nChannel(s) : 6 channels\nChannel positions : Front: L C R, Side: L R, LFE\nSampling rate : 48.0 KHz\nBit depth : 16 bits\nCompression mode : Lossy\nStream size : 443 MiB (11%)\nLanguage : Hindi\n\nAudio #2\nID : 3\nFormat : AC-3\nFormat/Info : Audio Coding 3\nMode extension : CM (complete main)\nFormat settings, Endianness : Big\nMuxing mode : Header stripping\nCodec ID : A_AC3\nDuration : 2h 18mn\nBit rate mode : Constant\nBit rate : 448 Kbps\nChannel(s) : 6 channels\nChannel positions : Front: L C R, Side: L R, LFE\nSampling rate : 48.0 KHz\nBit depth : 16 bits\nCompression mode : Lossy\nStream size : 443 MiB (11%)\nLanguage : English\nDefault : Yes\nSubtitle : English\n\n\n\nScreen Shoots:-\n    &lt;a href=&quot;\nhttp://img837.imageshack.us/img837/2936/5jqe.jpg&quot; rel=&quot;nofollow&quot; target=&quot;_NEW&quot;&gt;\nhttp://img837.imageshack.us/img837/2936/5jqe.jpg&lt;/a&gt;\n &lt;a href=&quot;\nhttp://img834.imageshack.us/img834/2107/okh1.jpg&quot; rel=&quot;nofollow&quot; target=&quot;_NEW&quot;&gt;\nhttp://img834.imageshack.us/img834/2107/okh1.jpg&lt;/a&gt;\n &lt;a href=&quot;\nhttp://postimg.org/image/778ibci9v/&quot; rel=&quot;nofollow&quot; target=&quot;_NEW&quot;&gt;\nhttp://postimg.org/image/778ibci9v/&lt;/a&gt;\n\n\n\nNote:-- Check The Torrent\n\n\nCheck The Sample Video In This Torrent\t","torrent":{"xt":"urn:btih:f47874f32a526b4d5ebedf9345ae1d9a495d768b","amp;dn":"The+Wolverine+%282013%29+Ext.Cut+1080p+BDRip%5BHindi-Eng%5DDD5.1-DGrea8","amp;tr":["udp%3A%2F%2Ftracker.openbittorrent.com%3A80","udp%3A%2F%2Fopen.demonii.com%3A1337","udp%3A%2F%2Ftracker.coppersurfer.tk%3A6969","udp%3A%2F%2Fexodus.desync.com%3A6969"],"infoHash":"f47874f32a526b4d5ebedf9345ae1d9a495d768b","infoHashBuffer":{"type":"Buffer","data":[244,120,116,243,42,82,107,77,94,190,223,147,69,174,29,154,73,93,118,139]},"announce":[],"urlList":[]}}